<svg width="64" height="64" viewBox="0 0 64 64" fill="none" xmlns="http://www.w3.org/2000/svg">
<path d="M4.079 34C4.032 33.339 4 32.673 4 32C4 16.536 16.536 4 32 4C45.403 4 56.602 13.42 59.349 26H55.245C52.58 15.648 43.183 8 32 8C19.419 8 9.106 17.682 8.089 30H28V34H4.079ZM36 30V34H55.91C54.894 46.318 44.581 56 32 56C20.817 56 11.42 48.352 8.756 38H4.651C7.399 50.579 18.597 60 32 60C47.464 60 60 47.464 60 32C60 31.327 59.968 30.661 59.921 30H36Z" fill="url(#paint0_linear_110_10)"/>
<path d="M44 26H42V24C42 18.486 37.514 14 32 14C26.486 14 22 18.486 22 24V26H20C18.896 26 18 26.896 18 28V44C18 45.104 18.896 46 20 46H44C45.104 46 46 45.104 46 44V28C46 26.896 45.104 26 44 26ZM34 37.222V42H30V37.222C29.391 36.673 29 35.885 29 35C29 33.343 30.343 32 32 32C33.657 32 35 33.343 35 35C35 35.886 34.609 36.673 34 37.222ZM38 26H26V24C26 20.691 28.691 18 32 18C35.309 18 38 20.691 38 24V26Z" fill="#EFE6FF"/>
<defs>
<linearGradient id="paint0_linear_110_10" x1="12.2017" y1="12.2017" x2="51.7996" y2="51.7996" gradientUnits="userSpaceOnUse">
<stop stop-color="#E68CBC"/>
<stop offset="1" stop-color="#8366B3"/>
</linearGradient>
</defs>
</svg>
