<svg width="64" height="64" viewBox="0 0 64 64" fill="none" xmlns="http://www.w3.org/2000/svg">
<path d="M49.517 34V30H38.982L55.034 20.732L53.035 17.269L36.981 26.537L42.249 17.412L38.785 15.412L33.517 24.536V6H29.517V24.536L24.249 15.412L20.785 17.413L26.053 26.536L10 17.268L8 20.732L24.052 30H13.517V34H24.054L8 43.269L10 46.732L26.053 37.465L20.785 46.589L24.249 48.589L29.517 39.464V58H33.517V39.465L38.785 48.589L42.249 46.589L36.982 37.465L53.034 46.732L55.034 43.269L38.98 34H49.517Z" fill="url(#paint0_linear_110_2)"/>
<path d="M49.517 36C47.308 36 45.517 34.209 45.517 32C45.517 29.791 47.308 28 49.517 28C51.726 28 53.517 29.791 53.517 32C53.517 34.209 51.726 36 49.517 36ZM35.517 6C35.517 8.209 33.726 10 31.517 10C29.308 10 27.517 8.209 27.517 6C27.517 3.791 29.308 2 31.517 2C33.726 2 35.517 3.791 35.517 6ZM35.517 58C35.517 60.209 33.726 62 31.517 62C29.308 62 27.517 60.209 27.517 58C27.517 55.791 29.308 54 31.517 54C33.726 54 35.517 55.791 35.517 58ZM17.517 32C17.517 29.791 15.726 28 13.517 28C11.308 28 9.517 29.791 9.517 32C9.517 34.209 11.308 36 13.517 36C15.726 36 17.517 34.209 17.517 32ZM43.981 18.412C42.877 20.325 40.429 20.98 38.517 19.876C36.603 18.772 35.949 16.325 37.052 14.412C38.157 12.499 40.603 11.843 42.517 12.948C44.429 14.052 45.085 16.499 43.981 18.412ZM11 15.536C12.913 16.64 13.569 19.087 12.464 21C11.359 22.913 8.913 23.568 7 22.464C5.087 21.36 4.432 18.914 5.537 17C6.642 15.086 9.087 14.432 11 15.536ZM56.034 41.536C57.947 42.64 58.602 45.087 57.498 47C56.394 48.913 53.947 49.569 52.034 48.465C50.121 47.361 49.465 44.913 50.57 43C51.675 41.087 54.121 40.432 56.034 41.536ZM24.517 44.124C22.604 43.02 20.157 43.676 19.052 45.588C17.948 47.501 18.604 49.948 20.517 51.053C22.43 52.158 24.876 51.501 25.981 49.588C27.085 47.676 26.43 45.229 24.517 44.124ZM25.981 14.412C27.085 16.325 26.429 18.772 24.516 19.876C22.603 20.98 20.157 20.325 19.052 18.412C17.947 16.499 18.603 14.053 20.516 12.948C22.429 11.843 24.876 12.499 25.981 14.412ZM7 41.536C8.913 40.432 11.36 41.087 12.465 43C13.57 44.913 12.913 47.36 11 48.465C9.088 49.569 6.642 48.913 5.537 47C4.432 45.087 5.087 42.641 7 41.536ZM52.034 15.536C53.947 14.432 56.393 15.087 57.498 17C58.603 18.913 57.948 21.36 56.035 22.464C54.122 23.568 51.675 22.912 50.57 20.999C49.465 19.086 50.121 16.641 52.034 15.536ZM38.517 44.124C36.603 45.228 35.949 47.676 37.052 49.589C38.155 51.502 40.604 52.157 42.517 51.053C44.43 49.949 45.085 47.501 43.98 45.588C42.876 43.676 40.429 43.02 38.517 44.124ZM37.517 32C37.517 35.313 34.83 38 31.517 38C28.204 38 25.517 35.313 25.517 32C25.517 28.687 28.204 26 31.517 26C34.83 26 37.517 28.687 37.517 32Z" fill="#EFE6FF"/>
<defs>
<linearGradient id="paint0_linear_110_2" x1="13.393" y1="13.876" x2="49.6419" y2="50.1249" gradientUnits="userSpaceOnUse">
<stop stop-color="#E68CBC"/>
<stop offset="1" stop-color="#8366B3"/>
</linearGradient>
</defs>
</svg>
