<svg width="56" height="52" viewBox="0 0 56 52" fill="none" xmlns="http://www.w3.org/2000/svg">
<path d="M26 20H2C0.896 20 0 19.104 0 18V2C0 0.896 0.896 0 2 0H26C27.104 0 28 0.896 28 2V18C28 19.104 27.104 20 26 20ZM4 16H24V4H4V16ZM18 20C17.157 20 10.843 20 10 20C8.896 20 8 20.896 8 22C8 23.104 8.896 24 10 24C10.843 24 17.157 24 18 24C19.104 24 20 23.104 20 22C20 20.896 19.104 20 18 20ZM54 48H30C28.896 48 28 47.104 28 46V30C28 28.896 28.896 28 30 28H54C55.104 28 56 28.896 56 30V46C56 47.104 55.104 48 54 48ZM32 44H52V32H32V44ZM46 48C45.156 48 38.843 48 38 48C36.896 48 36 48.896 36 50C36 51.104 36.896 52 38 52C38.843 52 45.156 52 46 52C47.104 52 48 51.104 48 50C48 48.896 47.104 48 46 48Z" fill="#EFE6FF"/>
</svg>
